PathFileType	4	(X/Y/Z)	Apose_0-50.trc
DataRate	CameraRate	NumFrames	NumMarkers	Units	OrigDataRate	OrigDataStartFrame	OrigNumFrames
30	30	6	22	m	30	40	50
Frame#	Time	Hip			RHip			RKnee			RAnkle			RBigToe			RSmallToe			RHeel			LHip			LKnee			LAnkle			LBigToe			LSmallToe			LHeel			Neck			Head			Nose			RShoulder			RElbow			RWrist			LShoulder			LElbow			LWrist		
		X1	Y1	Z1	X2	Y2	Z2	X3	Y3	Z3	X4	Y4	Z4	X5	Y5	Z5	X6	Y6	Z6	X7	Y7	Z7	X8	Y8	Z8	X9	Y9	Z9	X10	Y10	Z10	X11	Y11	Z11	X12	Y12	Z12	X13	Y13	Z13	X14	Y14	Z14	X15	Y15	Z15	X16	Y16	Z16	X17	Y17	Z17	X18	Y18	Z18	X19	Y19	Z19	X20	Y20	Z20	X21	Y21	Z21	X22	Y22	Z22
41	1.3666666666666667	0.04041719042095853	0.9229033335770952	0.3547828391072462	0.0327160386064147	0.881854635583085	0.4614931099914759	0.006556302578734304	0.5088512024327413	0.49560079361343545	-0.004495176097359844	0.11048612736980756	0.5142517445320973	0.2023667731553269	0.03644830296987564	0.5650950647346805	0.15124376653242944	0.031218437912706287	0.6269161111761713	-0.03933642848123447	0.037363798888898236	0.5009238793958541	0.0343553920511985	0.882014169841501	0.24253517583852846	0.014817177160062938	0.5092287091048753	0.22189327980215798	0.005154979186836561	0.11733962010770832	0.20862594370909765	0.22188788365741471	0.047349024924054385	0.18752745121279688	0.1680225620966036	0.034864008131497384	0.12572216329940006	-0.049087640187821184	0.048522777168989326	0.20653012530376966	0.055598457939182645	1.5758487491774391	0.34328711661653927	0.22002606480545372	1.8027145874290855	0.31323963907941765	0.2948456092519401	1.6490619416081427	0.32942127067046834	0.022405761762355047	1.4911435930403427	0.5258860741376349	0.08280975245026476	1.2349208216412435	0.7137893918108624	0.12938049915692595	1.0431835244046475	0.8854260965453967	0.015445092223659822	1.4802595045957696	0.14654536352906156	0.02876483746605883	1.2247317338453962	0.0007322037910739218	0.07927420074333806	1.0176610080020365	-0.1480256216909889
42	1.4	0.04108288645237401	0.9230826003751452	0.35505081858305804	0.0327396192643746	0.88252212704926	0.4618704278733586	0.006825669910295055	0.5091296484956522	0.49580527215178827	-0.0035198427148640686	0.10961442252527515	0.5143524084980545	0.20361235865839084	0.036861398524223404	0.565855592126362	0.15092540508406735	0.03138347160852831	0.6271939989295223	-0.03743893113183835	0.03601642757882116	0.49978836610944877	0.03476948378490131	0.8823461423485437	0.2426197847257735	0.015253152900240251	0.509808243037798	0.2221320319399008	0.0053207612208108265	0.11782858267284559	0.20857274427286884	0.22148837808057664	0.04762430562233033	0.18753527863579972	0.16792981291310144	0.03536084965393876	0.12589879434742504	-0.04971963989312751	0.04772514933791774	0.20660706442577761	0.05644246570082903	1.5779548589251928	0.3439271988717769	0.2171480572096628	1.8065660901993437	0.3110820249158822	0.2937500784621223	1.654559977311183	0.3270891908428214	0.022423919413561286	1.4911387305562096	0.5255608513201596	0.08393874596294562	1.2350681390802767	0.7133722434635652	0.1312212925406245	1.042710613144344	0.8846200288587914	0.015651349743547028	1.4805341309683582	0.14686884909139103	0.029014803931016093	1.2245815167494767	0.0005793692613044488	0.07886683858077008	1.016912365221005	-0.14891069172694685
43	1.4333333333333331	0.041847523937997615	0.9230211023284001	0.35543820333100906	0.03269696218987591	0.8830521578780866	0.46239576479916217	0.007311336867105059	0.5092976477045337	0.49612441349988995	-0.003068264150775964	0.10921627429824275	0.5147572355133777	0.20402439656680119	0.036712099999995834	0.5661976613213909	0.15031509095787332	0.031594946594499754	0.6274058873802622	-0.035796814759727826	0.03497463383942299	0.49893413604307607	0.035239363325398315	0.8824123976980387	0.24292009028005715	0.015925950081032203	0.5104138324422334	0.22268812068387148	0.005321769939501115	0.11855575116492359	0.20840659138324855	0.22103604315670544	0.04778806525802158	0.1874741622635178	0.16763592030341135	0.03589538201628735	0.12602816611761888	-0.04956956212677696	0.048992608297317754	0.205767621396091	0.05709485232298939	1.5809224449497143	0.3449895622087807	0.21793655616270266	1.8093244273265416	0.307078076944753	0.2880281989218535	1.6574469804828038	0.3256851537824397	0.02239957537064266	1.4910455771607594	0.5254700604672352	0.08464311036433086	1.2352505951727817	0.7129102182959486	0.13326948399407829	1.0422909580034156	0.8836506017597664	0.015630449526867263	1.4807578726172275	0.14715862723059503	0.029396507303209658	1.224427005145446	0.0004186105925248686	0.07835061544206309	1.0159538435444073	-0.15001494980328525
44	1.4666666666666666	0.042617721616609754	0.9227076381926477	0.3558934992595516	0.032708810001145325	0.88334647103988	0.46305552590282295	0.00806622476139679	0.5093527822323481	0.49649221876022887	-0.0031128766829912075	0.10929435768242145	0.5153297464346913	0.20333007405049974	0.036309989623614515	0.5659590169435731	0.1494686079839273	0.031890448893162435	0.6274826317330295	-0.03470615166080076	0.03444859423949714	0.4985273861586638	0.035767791989977316	0.882145752102316	0.2434481813818236	0.016753693988614125	0.5109845879701939	0.2235282864419058	0.00521233232851268	0.11931045696589547	0.20818125738975993	0.2206573407865512	0.04789827430884254	0.1873368263649221	0.1672028775976741	0.03641685192051665	0.1261415071473334	-0.048910724214952246	0.05174692638017904	0.2043703234060577	0.05758727711188511	1.5844458419643086	0.34631434588764415	0.22017403781485737	1.811284982724535	0.30301693938113305	0.2787679545845303	1.6581359286349937	0.3254024365139406	0.022469345136505222	1.4908274373073542	0.5257172099309879	0.0851169930501304	1.2354633247639124	0.712447682231044	0.1354051457311484	1.0420115375832575	0.8826495938346992	0.015406352829145601	1.4809125846807636	0.14741374159094192	0.029916349252163854	1.224263705029352	0.00025099809489398855	0.07811553439226407	1.0150501723392729	-0.1509868122314831
45	1.5	0.043331570420758955	0.9222189647830776	0.35634520603609676	0.032910004278508986	0.8833856698143712	0.4637452545809556	0.00901493362711806	0.5093252047312727	0.49679829495982747	-0.0034768150139721284	0.10972418937655484	0.5158945259824627	0.20169648762919415	0.03596271194783622	0.5651674201504844	0.14853926278860838	0.03222667770769546	0.6274389213743423	-0.03417870832215237	0.03439288277947852	0.49844991396817206	0.03634846090995786	0.8816335357401198	0.24414541367053522	0.017624889205826375	0.5114192704883554	0.22448968846504347	0.005053742640368329	0.11997737178076151	0.20800327878787422	0.2204364635021219	0.0480197793787755	0.18708381645021793	0.16670944869173546	0.0368153171449507	0.1262766670789681	-0.04816692118904385	0.054810212011893227	0.20306234922298858	0.05780563196185556	1.5875706612631408	0.3475242543733323	0.22173626139058966	1.8127049545347922	0.3003942556214578	0.2678537632333717	1.6574074666732261	0.3263191973960474	0.022693820757733945	1.4904953661128308	0.5263202670979725	0.08548834693701858	1.2356230869224363	0.7120280563814783	0.13744731739436522	1.0419122070763247	0.8817550520237444	0.015035858016551617	1.48101098778451	0.14767920206486593	0.030507145388993292	1.2240797093865203	8.608539800534579e-05	0.07837071458647918	1.0143678392942088	-0.15167552726882996
46	1.5333333333333334	0.043953301757518	0.9217009028740629	0.3567208801057724	0.03340835090051545	0.8831574819102553	0.4642762047489717	0.009980213972229902	0.5092213285349225	0.4969753713769694	-0.004076616397515437	0.11048789613967219	0.5163294883412591	0.19977795222540654	0.035702559595431185	0.5641112583797195	0.14776050432156818	0.03247196996251835	0.627339111136777	-0.034076630954129265	0.03458818500728528	0.4984446328102813	0.03698935397214785	0.881047294300091	0.24488980076242314	0.018461874071089845	0.5115833744126186	0.2253090393570072	0.004842803003419684	0.12064971432338664	0.20794070093552267	0.2204240922534361	0.04816335064921144	0.18670268421433203	0.16623937761373286	0.036927373798278956	0.12647502324438678	-0.04748357308129016	0.057263066178180125	0.20230374404981014	0.05752606345521448	1.5890248526109696	0.34809511445738495	0.22197295464965552	1.8137019660614628	0.29907993566996866	0.25808391454534774	1.6564140844608748	0.32863567070184047	0.023075955247308707	1.4900814625905527	0.5272488047323416	0.08587970009959553	1.2355804264284997	0.7117137598659812	0.1392372012106814	1.0419571303148885	0.8810519525386354	0.014613595171443053	1.4810341314869	0.14799654683966626	0.031094839572732638	1.2238596449010353	-0.0001000048812007267	0.07898597208269476	1.0139239242777534	-0.15219576533125798
